<svg width="18" height="18" viewBox="0 0 18 18" fill="none" xmlns="http://www.w3.org/2000/svg">
<g clip-path="url(#clip0_1634_89)">
<mask id="mask0_1634_89" style="mask-type:luminance" maskUnits="userSpaceOnUse" x="0" y="0" width="18" height="18">
<path d="M18 0H0V17.8569H18V0Z" fill="white"/>
</mask>
<g mask="url(#mask0_1634_89)">
<path d="M11.9985 4.99469L8.99987 7.66846L6.00122 4.99469V1.00249C6.00122 0.449017 6.45119 -5.88521e-05 7.00467 -5.88037e-05L10.9969 -5.84547e-05C11.5504 -5.84063e-05 11.9985 0.449018 11.9985 1.00249V4.99469Z" fill="#656668"/>
<path d="M8.99987 6.8855L6.58619 4.7328V1.00249C6.58619 0.772101 6.77428 0.58401 7.00467 0.58401L10.9969 0.584011C11.2273 0.584011 11.4145 0.772102 11.4145 1.00249V4.7328L8.99987 6.8855ZM8.99987 7.66846L11.9985 4.99469V1.00249C11.9985 0.449018 11.5504 -5.84063e-05 10.9969 -5.84547e-05L7.00467 -5.88037e-05C6.45119 -5.88521e-05 6.00122 0.449017 6.00122 1.00249V4.99469L8.99987 7.66846Z" fill="#656668"/>
<path d="M11.9985 12.8622L8.99988 10.1885L6.00123 12.8622L6.00122 16.8544C6.00122 17.4079 6.4512 17.857 7.00467 17.857H10.9969C11.5504 17.857 11.9985 17.4079 11.9985 16.8544V12.8622Z" fill="#656668"/>
<path d="M8.99988 10.9714L6.5862 13.1241V16.8544C6.5862 17.0848 6.77429 17.2729 7.00467 17.2729H10.9969C11.2273 17.2729 11.4145 17.0848 11.4145 16.8544V13.1241L8.99988 10.9714ZM8.99988 10.1885L11.9985 12.8622V16.8544C11.9985 17.4079 11.5504 17.857 10.9969 17.857H7.00467C6.4512 17.857 6.00122 17.4079 6.00122 16.8544L6.00123 12.8622L8.99988 10.1885Z" fill="#656668"/>
<path d="M4.99614 5.92995L7.6699 8.9286L4.99614 11.9272H1.00214C0.448665 11.9272 0.000488233 11.4782 0.000488281 10.9247L0.000488631 6.9316C0.000488679 6.37902 0.450465 5.92995 1.00214 5.92995H4.99614Z" fill="#656668"/>
<path d="M1.00214 11.3423C0.771749 11.3423 0.585459 11.156 0.585459 10.9247V6.9316C0.585459 6.70121 0.771749 6.51492 1.00214 6.51492H4.73335L6.88514 8.9286L4.73335 11.3423H1.00214ZM1.00214 11.9272H4.99614L7.6699 8.9286L4.99614 5.92995H1.00214C0.450465 5.92995 0.000488679 6.37902 0.000488631 6.9316L0.000488281 10.9247C0.000488233 11.4782 0.448665 11.9272 1.00214 11.9272Z" fill="#656668"/>
<path d="M13.0057 11.9272L10.332 8.9286L13.0057 5.92995H16.9979C17.5514 5.92995 18.0005 6.37902 18.0005 6.9316V10.9256C18.0005 11.4782 17.5514 11.9272 16.9979 11.9272H13.0057Z" fill="#0044A1"/>
<path d="M13.2676 11.3423L11.1158 8.9286L13.2676 6.51492H16.9979C17.2283 6.51492 17.4164 6.70121 17.4164 6.9316V10.9256C17.4164 11.156 17.2283 11.3423 16.9979 11.3423H13.2676ZM13.0057 11.9272H16.9979C17.5514 11.9272 18.0005 11.4782 18.0005 10.9256V6.9316C18.0005 6.37902 17.5514 5.92995 16.9979 5.92995H13.0057L10.332 8.9286L13.0057 11.9272Z" fill="#0044A1"/>
</g>
</g>
<defs>
<clipPath id="clip0_1634_89">
<rect width="18" height="18" fill="white"/>
</clipPath>
</defs>
</svg>
