<svg width="18" height="18" viewBox="0 0 18 18" fill="none" xmlns="http://www.w3.org/2000/svg">
<g clip-path="url(#clip0_1350_44)">
<path d="M11.9985 4.99469L8.99989 7.66846L6.00124 4.99469L6.00124 1.00249C6.00124 0.449017 6.45121 -5.88521e-05 7.00469 -5.88037e-05L10.9969 -5.84547e-05C11.5504 -5.84063e-05 11.9985 0.449018 11.9985 1.00249L11.9985 4.99469V4.99469Z" fill="#0044A1"/>
<path d="M8.99989 6.8855L6.58621 4.7328L6.58621 1.00249C6.58621 0.772101 6.7743 0.58401 7.00469 0.58401L10.9969 0.584011C11.2273 0.584011 11.4145 0.772102 11.4145 1.00249L11.4145 4.7328L8.99989 6.8855ZM8.99989 7.66846L11.9985 4.99469L11.9985 1.00249C11.9985 0.449018 11.5504 -5.84063e-05 10.9969 -5.84547e-05L7.00469 -5.88037e-05C6.45121 -5.88521e-05 6.00124 0.449017 6.00124 1.00249L6.00124 4.99469L8.99989 7.66846Z" fill="#0044A1"/>
<path d="M11.9985 12.8622L8.99989 10.1885L6.00124 12.8622L6.00123 16.8544C6.00123 17.4079 6.45121 17.857 7.00468 17.857L10.9969 17.857C11.5504 17.857 11.9985 17.4079 11.9985 16.8544L11.9985 12.8622V12.8622Z" fill="#0044A1"/>
<path d="M8.99989 10.9714L6.58621 13.1241L6.58621 16.8544C6.58621 17.0848 6.7743 17.2729 7.00468 17.2729L10.9969 17.2729C11.2273 17.2729 11.4145 17.0848 11.4145 16.8544L11.4145 13.1241L8.99989 10.9714ZM8.99989 10.1885L11.9985 12.8622L11.9985 16.8544C11.9985 17.4079 11.5504 17.857 10.9969 17.857L7.00468 17.857C6.45121 17.857 6.00123 17.4079 6.00123 16.8544L6.00124 12.8622L8.99989 10.1885Z" fill="#0044A1"/>
<path d="M4.99616 5.92995L7.66992 8.9286L4.99616 11.9272L1.00216 11.9272C0.448683 11.9272 0.000506197 11.4782 0.000506245 10.9247L0.000506595 6.9316C0.000506643 6.37902 0.450483 5.92995 1.00216 5.92995L4.99616 5.92995Z" fill="#656668"/>
<path d="M1.00216 11.3423C0.771767 11.3423 0.585477 11.156 0.585477 10.9247L0.585477 6.9316C0.585477 6.70121 0.771767 6.51492 1.00216 6.51492L4.73337 6.51492L6.88516 8.9286L4.73337 11.3423L1.00216 11.3423V11.3423ZM1.00216 11.9272L4.99616 11.9272L7.66992 8.9286L4.99616 5.92995L1.00216 5.92995C0.450483 5.92995 0.000506643 6.37902 0.000506595 6.9316L0.000506245 10.9247C0.000506197 11.4782 0.448683 11.9272 1.00216 11.9272Z" fill="#656668"/>
<path d="M13.0057 11.9272L10.332 8.9286L13.0057 5.92995L16.9979 5.92995C17.5514 5.92995 18.0005 6.37902 18.0005 6.9316L18.0005 10.9256C18.0005 11.4782 17.5514 11.9272 16.9979 11.9272L13.0057 11.9272Z" fill="#656668"/>
<path d="M13.2676 11.3423L11.1158 8.9286L13.2676 6.51492L16.9979 6.51492C17.2283 6.51492 17.4164 6.70121 17.4164 6.9316L17.4164 10.9256C17.4164 11.156 17.2283 11.3423 16.9979 11.3423L13.2676 11.3423ZM13.0057 11.9272L16.9979 11.9272C17.5514 11.9272 18.0005 11.4782 18.0005 10.9256L18.0005 6.9316C18.0005 6.37902 17.5514 5.92995 16.9979 5.92995L13.0057 5.92995L10.332 8.9286L13.0057 11.9272Z" fill="#656668"/>
</g>
<defs>
<clipPath id="clip0_1350_44">
<rect width="18" height="17.8569" fill="white"/>
</clipPath>
</defs>
</svg>
