<svg width="29" height="15" viewBox="0 0 29 15" fill="none" xmlns="http://www.w3.org/2000/svg">
<path d="M27 3H2V12H27V3Z" fill="#656668" stroke="#656668" stroke-width="2"/>
<path d="M2 8.34212L2.8891 8.24984C2.94261 8.56845 3.05066 8.80246 3.21324 8.95188C3.37789 9.1013 3.59914 9.17601 3.87698 9.17601C4.17129 9.17601 4.39253 9.11009 4.54071 8.97825C4.69095 8.84421 4.76607 8.6882 4.76607 8.51022C4.76607 8.39596 4.73417 8.29927 4.67037 8.22017C4.60863 8.13887 4.49955 8.06856 4.34314 8.00923C4.23612 7.96968 3.99223 7.89936 3.61149 7.79829C3.12166 7.66864 2.77796 7.50934 2.58038 7.32037C2.30254 7.05449 2.16362 6.73039 2.16362 6.34806C2.16362 6.10196 2.22845 5.87234 2.35811 5.6592C2.48983 5.44386 2.67814 5.28016 2.92305 5.16809C3.17002 5.05603 3.46742 5 3.81524 5C4.38327 5 4.81032 5.13294 5.0964 5.39881C5.38453 5.66469 5.5358 6.01956 5.55021 6.46341L4.63641 6.50626C4.59731 6.25797 4.51293 6.07998 4.38327 5.97231C4.25567 5.86245 4.06324 5.80751 3.80597 5.80751C3.54048 5.80751 3.33261 5.86574 3.18237 5.9822C3.08564 6.05691 3.03728 6.15689 3.03728 6.28214C3.03728 6.3964 3.08256 6.49418 3.17311 6.57548C3.28836 6.67875 3.56827 6.78642 4.01281 6.89848C4.45736 7.01055 4.78563 7.12701 4.99761 7.24786C5.21165 7.36651 5.37836 7.53021 5.49773 7.73896C5.61915 7.94551 5.67987 8.20149 5.67987 8.50692C5.67987 8.78378 5.60783 9.04307 5.46377 9.28477C5.3197 9.52648 5.11595 9.70666 4.85251 9.82531C4.58908 9.94177 4.26081 10 3.86772 10C3.29557 10 2.85617 9.85937 2.54951 9.57811C2.24285 9.29466 2.05968 8.88266 2 8.34212Z" fill="white"/>
<path d="M6.53076 9.9143V5.0824H9.88647V5.8998H7.44455V6.971H9.71668V7.7851H7.44455V9.1002H9.97291V9.9143H6.53076Z" fill="white"/>
<path d="M10.8547 9.9143V5.12195H11.7685V9.1002H14.0406V9.9143H10.8547Z" fill="white"/>
<path d="M14.7773 9.9143V5.0824H18.133V5.8998H15.6911V6.971H17.9632V7.7851H15.6911V9.1002H18.2194V9.9143H14.7773Z" fill="white"/>
<path d="M21.9722 8.13777L22.8582 8.43771C22.7224 8.96506 22.496 9.35728 22.1791 9.61437C21.8642 9.86926 21.4639 9.9967 20.9782 9.9967C20.3772 9.9967 19.8833 9.77807 19.4963 9.3408C19.1094 8.90134 18.916 8.30147 18.916 7.5412C18.916 6.73698 19.1104 6.11294 19.4994 5.66908C19.8884 5.22303 20.3998 5 21.0337 5C21.5874 5 22.037 5.17469 22.3828 5.52406C22.5886 5.73061 22.743 6.02725 22.8459 6.41397L21.9413 6.64469C21.8878 6.3942 21.7757 6.19644 21.6048 6.05142C21.4361 5.90639 21.2303 5.83388 20.9874 5.83388C20.652 5.83388 20.3793 5.96243 20.1693 6.21951C19.9615 6.4766 19.8575 6.89299 19.8575 7.46869C19.8575 8.07954 19.9604 8.51461 20.1662 8.7739C20.3721 9.03318 20.6396 9.16282 20.9689 9.16282C21.2118 9.16282 21.4206 9.08042 21.5956 8.91562C21.7705 8.75082 21.8961 8.49154 21.9722 8.13777Z" fill="white"/>
<path d="M24.7464 9.9143V5.8998H23.4035V5.0824H27V5.8998H25.6602V9.9143H24.7464Z" fill="white"/>
</svg>
