<svg width="29" height="15" viewBox="0 0 29 15" fill="none" xmlns="http://www.w3.org/2000/svg">
<path d="M27 3H2V12H27V3Z" fill="#656668" stroke="#656668" stroke-width="2"/>
<path d="M4 8.34212L4.90709 8.24984C4.96168 8.56845 5.07192 8.80246 5.2378 8.95188C5.40578 9.1013 5.6315 9.17601 5.91496 9.17601C6.21522 9.17601 6.44095 9.11009 6.59213 8.97825C6.74541 8.84421 6.82205 8.6882 6.82205 8.51022C6.82205 8.39596 6.7895 8.29927 6.72441 8.22017C6.66142 8.13887 6.55013 8.06856 6.39055 8.00923C6.28137 7.96968 6.03255 7.89936 5.6441 7.79829C5.14436 7.66864 4.7937 7.50934 4.59213 7.32037C4.30866 7.05449 4.16693 6.73039 4.16693 6.34806C4.16693 6.10196 4.23307 5.87234 4.36535 5.6592C4.49974 5.44386 4.69186 5.28016 4.94173 5.16809C5.1937 5.05603 5.49711 5 5.85197 5C6.4315 5 6.86719 5.13294 7.15906 5.39881C7.45302 5.66469 7.60735 6.01956 7.62205 6.46341L6.68977 6.50626C6.64987 6.25797 6.56378 6.07998 6.4315 5.97231C6.30131 5.86245 6.10499 5.80751 5.84252 5.80751C5.57165 5.80751 5.35958 5.86574 5.2063 5.9822C5.10761 6.05691 5.05827 6.15689 5.05827 6.28214C5.05827 6.3964 5.10446 6.49418 5.19685 6.57548C5.31444 6.67875 5.6 6.78642 6.05354 6.89848C6.50709 7.01055 6.842 7.127 7.05827 7.24786C7.27664 7.36651 7.44672 7.53021 7.56851 7.73896C7.69239 7.94551 7.75433 8.20149 7.75433 8.50692C7.75433 8.78378 7.68084 9.04307 7.53386 9.28477C7.38688 9.52648 7.179 9.70666 6.91024 9.82531C6.64147 9.94177 6.30656 10 5.90551 10C5.32179 10 4.87349 9.85937 4.56063 9.57811C4.24777 9.29466 4.06089 8.88266 4 8.34212Z" fill="white"/>
<path d="M9.66181 9.9143V5.8998H8.29173V5.0824H11.961V5.8998H10.5941V9.9143H9.66181Z" fill="white"/>
<path d="M16.3346 9.9143H15.3205L14.9173 8.81674H13.0717L12.6905 9.9143H11.7016L13.5 5.0824H14.4858L16.3346 9.9143ZM14.6181 8.00264L13.9819 6.20962L13.3583 8.00264H14.6181Z" fill="white"/>
<path d="M16.9193 9.9143V5.0824H18.8815C19.3749 5.0824 19.7329 5.12635 19.9555 5.21424C20.1802 5.29993 20.3597 5.45375 20.4941 5.67568C20.6285 5.8976 20.6957 6.1514 20.6957 6.43705C20.6957 6.7996 20.5938 7.09954 20.3902 7.33685C20.1865 7.57196 19.882 7.72028 19.4768 7.78181C19.6783 7.90486 19.8442 8.03999 19.9744 8.18721C20.1067 8.33443 20.2841 8.59591 20.5067 8.97165L21.0705 9.9143H19.9555L19.2815 8.86289C19.0421 8.48715 18.8783 8.25093 18.7902 8.15425C18.702 8.05537 18.6085 7.98835 18.5098 7.9532C18.4112 7.91584 18.2547 7.89717 18.0405 7.89717H17.8516V9.9143H16.9193ZM17.8516 7.12591H18.5413C18.9886 7.12591 19.2678 7.10613 19.3791 7.06658C19.4904 7.02703 19.5776 6.95891 19.6406 6.86223C19.7035 6.76555 19.735 6.64469 19.735 6.49967C19.735 6.33707 19.693 6.20633 19.6091 6.10745C19.5272 6.00637 19.4106 5.94265 19.2594 5.91628C19.1839 5.9053 18.9571 5.8998 18.5791 5.8998H17.8516V7.12591Z" fill="white"/>
<path d="M22.7008 9.9143V5.8998H21.3307V5.0824H25V5.8998H23.6331V9.9143H22.7008Z" fill="white"/>
</svg>
