<svg width="18" height="19" viewBox="0 0 18 19" fill="none" xmlns="http://www.w3.org/2000/svg">
<g clip-path="url(#clip0_1634_61)">
<mask id="mask0_1634_61" style="mask-type:luminance" maskUnits="userSpaceOnUse" x="0" y="0" width="18" height="19">
<path d="M18 0.5H0V18.3569H18V0.5Z" fill="white"/>
</mask>
<g mask="url(#mask0_1634_61)">
<path d="M5.06647 6.43066L7.74023 9.42931L5.06647 12.428H1.07427C0.520792 12.428 0.0717162 11.978 0.0717163 11.4245L0.0717164 7.43231C0.0717165 6.87884 0.520792 6.43066 1.07427 6.43066H5.06647Z" fill="#0044A1"/>
<path d="M6.95727 9.42931L4.80458 11.843H1.07427C0.843877 11.843 0.655786 11.6549 0.655786 11.4245V7.43231C0.655786 7.20193 0.843877 7.01473 1.07427 7.01473H4.80458L6.95727 9.42931ZM7.74023 9.42931L5.06647 6.43066H1.07427C0.520792 6.43066 0.0717165 6.87884 0.0717164 7.43231L0.0717163 11.4245C0.0717162 11.978 0.520792 12.428 1.07427 12.428H5.06647L7.74023 9.42931Z" fill="#0044A1"/>
<path d="M12.934 6.43066L10.2603 9.42931L12.934 12.428H16.9262C17.4797 12.428 17.9288 11.978 17.9288 11.4245V7.43231C17.9288 6.87884 17.4797 6.43066 16.9262 6.43066H12.934Z" fill="#656668"/>
<path d="M11.0432 9.42931L13.1959 11.843H16.9262C17.1566 11.843 17.3447 11.6549 17.3447 11.4245V7.43231C17.3447 7.20193 17.1566 7.01473 16.9262 7.01473H13.1959L11.0432 9.42931ZM10.2603 9.42931L12.934 6.43066H16.9262C17.4797 6.43066 17.9288 6.87884 17.9288 7.43231V11.4245C17.9288 11.978 17.4797 12.428 16.9262 12.428H12.934L10.2603 9.42931Z" fill="#656668"/>
<path d="M6.00171 13.433L9.00036 10.7593L11.999 13.433V17.427C11.999 17.9805 11.5499 18.4287 10.9965 18.4287H7.00336C6.45079 18.4287 6.00171 17.9787 6.00171 17.427V13.433Z" fill="#656668"/>
<path d="M11.4141 17.427C11.4141 17.6574 11.2278 17.8437 10.9965 17.8437H7.00336C6.77297 17.8437 6.58668 17.6574 6.58668 17.427V13.6958L9.00036 11.544L11.4141 13.6958V17.427ZM11.999 17.427V13.433L9.00036 10.7593L6.00171 13.433V17.427C6.00171 17.9787 6.45079 18.4287 7.00336 18.4287H10.9965C11.5499 18.4287 11.999 17.9805 11.999 17.427Z" fill="#656668"/>
<path d="M11.999 5.42346L9.00036 8.09723L6.00171 5.42346V1.43126C6.00171 0.877788 6.45079 0.428711 7.00336 0.428711L10.9974 0.428711C11.5499 0.428711 11.999 0.877788 11.999 1.43126V5.42346Z" fill="#656668"/>
<path d="M11.4141 5.16157L9.00036 7.31337L6.58668 5.16157L6.58669 1.43126C6.58669 1.20087 6.77298 1.01278 7.00336 1.01278H10.9974C11.2278 1.01278 11.4141 1.20087 11.4141 1.43126V5.16157ZM11.999 5.42346V1.43126C11.999 0.877788 11.5499 0.428711 10.9974 0.428711L7.00336 0.428711C6.45079 0.428711 6.00171 0.877788 6.00171 1.43126V5.42346L9.00036 8.09723L11.999 5.42346Z" fill="#656668"/>
</g>
</g>
<defs>
<clipPath id="clip0_1634_61">
<rect width="18" height="18" fill="white" transform="translate(0 0.5)"/>
</clipPath>
</defs>
</svg>
