<svg width="18" height="18" viewBox="0 0 18 18" fill="none" xmlns="http://www.w3.org/2000/svg">
<g clip-path="url(#clip0_1350_62)">
<path d="M5.06647 5.93066L7.74023 8.92931L5.06647 11.928L1.07427 11.928C0.520795 11.928 0.0717187 11.478 0.0717188 10.9245L0.0717189 6.93231C0.071719 6.37884 0.520795 5.93066 1.07427 5.93066L5.06647 5.93066V5.93066Z" fill="#0044A1"/>
<path d="M6.95727 8.92931L4.80458 11.343L1.07427 11.343C0.843879 11.343 0.655788 11.1549 0.655788 10.9245L0.655788 6.93231C0.655788 6.70193 0.843879 6.51473 1.07427 6.51473L4.80458 6.51473L6.95727 8.92931ZM7.74023 8.92931L5.06647 5.93066L1.07427 5.93066C0.520795 5.93066 0.071719 6.37884 0.0717189 6.93231L0.0717188 10.9245C0.0717187 11.478 0.520795 11.928 1.07427 11.928L5.06647 11.928L7.74023 8.92931Z" fill="#0044A1"/>
<path d="M12.934 5.93066L10.2603 8.92931L12.934 11.928L16.9262 11.928C17.4797 11.928 17.9288 11.478 17.9288 10.9245L17.9288 6.93231C17.9288 6.37884 17.4797 5.93066 16.9262 5.93066L12.934 5.93066V5.93066Z" fill="#0044A1"/>
<path d="M11.0432 8.92931L13.1959 11.343L16.9262 11.343C17.1566 11.343 17.3447 11.1549 17.3447 10.9245L17.3447 6.93231C17.3447 6.70193 17.1566 6.51473 16.9262 6.51473L13.1959 6.51473L11.0432 8.92931ZM10.2603 8.92931L12.934 5.93066L16.9262 5.93066C17.4797 5.93066 17.9288 6.37884 17.9288 6.93231L17.9288 10.9245C17.9288 11.478 17.4797 11.928 16.9262 11.928L12.934 11.928L10.2603 8.92931Z" fill="#0044A1"/>
<path d="M6.00172 12.933L9.00037 10.2593L11.999 12.933L11.999 16.927C11.999 17.4805 11.5499 17.9287 10.9965 17.9287L7.00337 17.9287C6.4508 17.9287 6.00172 17.4787 6.00172 16.927L6.00172 12.933Z" fill="#656668"/>
<path d="M11.4141 16.927C11.4141 17.1574 11.2278 17.3437 10.9965 17.3437L7.00337 17.3437C6.77298 17.3437 6.58669 17.1574 6.58669 16.927L6.58669 13.1958L9.00037 11.044L11.4141 13.1958L11.4141 16.927V16.927ZM11.999 16.927L11.999 12.933L9.00037 10.2593L6.00172 12.933L6.00172 16.927C6.00172 17.4787 6.4508 17.9287 7.00337 17.9287L10.9965 17.9287C11.5499 17.9287 11.999 17.4805 11.999 16.927Z" fill="#656668"/>
<path d="M11.999 4.92346L9.00037 7.59723L6.00172 4.92346L6.00172 0.931261C6.00172 0.377788 6.4508 -0.0712893 7.00337 -0.0712893L10.9974 -0.0712891C11.5499 -0.0712891 11.999 0.377788 11.999 0.931261L11.999 4.92346Z" fill="#656668"/>
<path d="M11.4141 4.66157L9.00037 6.81337L6.58669 4.66157L6.5867 0.931261C6.5867 0.700872 6.77299 0.512782 7.00337 0.512782L10.9974 0.512782C11.2278 0.512782 11.4141 0.700872 11.4141 0.931261L11.4141 4.66157ZM11.999 4.92346L11.999 0.931261C11.999 0.377788 11.5499 -0.0712891 10.9974 -0.0712891L7.00337 -0.0712893C6.4508 -0.0712893 6.00172 0.377788 6.00172 0.931261L6.00172 4.92346L9.00037 7.59723L11.999 4.92346Z" fill="#656668"/>
</g>
<defs>
<clipPath id="clip0_1350_62">
<rect width="18" height="17.8569" fill="white"/>
</clipPath>
</defs>
</svg>
