<svg width="18" height="18" viewBox="0 0 18 18" fill="none" xmlns="http://www.w3.org/2000/svg">
<g clip-path="url(#clip0_1634_41)">
<mask id="mask0_1634_41" style="mask-type:luminance" maskUnits="userSpaceOnUse" x="0" y="0" width="18" height="18">
<path d="M18 0H0V17.8569H18V0Z" fill="white"/>
</mask>
<g mask="url(#mask0_1634_41)">
<path d="M11.9985 4.99469L8.9999 7.66846L6.00125 4.99469V1.00249C6.00125 0.449017 6.45122 -5.88521e-05 7.0047 -5.88037e-05L10.9969 -5.84547e-05C11.5504 -5.84063e-05 11.9985 0.449018 11.9985 1.00249V4.99469Z" fill="#656668"/>
<path d="M8.9999 6.8855L6.58622 4.7328V1.00249C6.58622 0.772101 6.77431 0.58401 7.0047 0.58401L10.9969 0.584011C11.2273 0.584011 11.4145 0.772102 11.4145 1.00249V4.7328L8.9999 6.8855ZM8.9999 7.66846L11.9985 4.99469V1.00249C11.9985 0.449018 11.5504 -5.84063e-05 10.9969 -5.84547e-05L7.0047 -5.88037e-05C6.45122 -5.88521e-05 6.00125 0.449017 6.00125 1.00249V4.99469L8.9999 7.66846Z" fill="#656668"/>
<path d="M11.9985 12.8622L8.99991 10.1885L6.00126 12.8622L6.00125 16.8544C6.00125 17.4079 6.45123 17.857 7.0047 17.857H10.9969C11.5504 17.857 11.9985 17.4079 11.9985 16.8544V12.8622Z" fill="#0044A1"/>
<path d="M8.99991 10.9714L6.58623 13.1241V16.8544C6.58623 17.0848 6.77432 17.2729 7.0047 17.2729H10.9969C11.2273 17.2729 11.4145 17.0848 11.4145 16.8544V13.1241L8.99991 10.9714ZM8.99991 10.1885L11.9985 12.8622V16.8544C11.9985 17.4079 11.5504 17.857 10.9969 17.857H7.0047C6.45123 17.857 6.00125 17.4079 6.00125 16.8544L6.00126 12.8622L8.99991 10.1885Z" fill="#0044A1"/>
<path d="M4.99617 5.92995L7.66993 8.9286L4.99617 11.9272H1.00217C0.448695 11.9272 0.000518751 11.4782 0.000518799 10.9247L0.000519149 6.9316C0.000519197 6.37902 0.450495 5.92995 1.00217 5.92995H4.99617Z" fill="#656668"/>
<path d="M1.00217 11.3423C0.771779 11.3423 0.58549 11.156 0.58549 10.9247V6.9316C0.58549 6.70121 0.771779 6.51492 1.00217 6.51492H4.73338L6.88517 8.9286L4.73338 11.3423H1.00217ZM1.00217 11.9272H4.99617L7.66993 8.9286L4.99617 5.92995H1.00217C0.450495 5.92995 0.000519197 6.37902 0.000519149 6.9316L0.000518799 10.9247C0.000518751 11.4782 0.448695 11.9272 1.00217 11.9272Z" fill="#656668"/>
<path d="M13.0057 11.9272L10.332 8.9286L13.0057 5.92995H16.9979C17.5514 5.92995 18.0005 6.37902 18.0005 6.9316V10.9256C18.0005 11.4782 17.5514 11.9272 16.9979 11.9272H13.0057Z" fill="#656668"/>
<path d="M13.2676 11.3423L11.1158 8.9286L13.2676 6.51492H16.9979C17.2283 6.51492 17.4164 6.70121 17.4164 6.9316V10.9256C17.4164 11.156 17.2283 11.3423 16.9979 11.3423H13.2676ZM13.0057 11.9272H16.9979C17.5514 11.9272 18.0005 11.4782 18.0005 10.9256V6.9316C18.0005 6.37902 17.5514 5.92995 16.9979 5.92995H13.0057L10.332 8.9286L13.0057 11.9272Z" fill="#656668"/>
</g>
</g>
<defs>
<clipPath id="clip0_1634_41">
<rect width="18" height="18" fill="white"/>
</clipPath>
</defs>
</svg>
