<svg width="18" height="15" viewBox="0 0 18 15" fill="none" xmlns="http://www.w3.org/2000/svg">
<g clip-path="url(#clip0_1350_124)">
<path d="M8.76904 13.7559C12.2208 13.7559 15.019 10.9576 15.019 7.50586C15.019 4.05408 12.2208 1.25586 8.76904 1.25586C5.31726 1.25586 2.51904 4.05408 2.51904 7.50586C2.51904 10.9576 5.31726 13.7559 8.76904 13.7559Z" fill="#656668" stroke="#656668" stroke-width="2"/>
<path d="M7 9.8319V5H8.96221C9.45564 5 9.81365 5.04395 10.0362 5.13184C10.2609 5.21753 10.4404 5.37135 10.5748 5.59328C10.7092 5.81521 10.7764 6.069 10.7764 6.35465C10.7764 6.7172 10.6745 7.01714 10.4709 7.25445C10.2672 7.48956 9.96273 7.63788 9.55748 7.69941C9.75906 7.82246 9.92494 7.95759 10.0551 8.10481C10.1874 8.25203 10.3648 8.51351 10.5874 8.88926L11.1512 9.8319H10.0362L9.36221 8.78049C9.12284 8.40475 8.95906 8.16853 8.87087 8.07185C8.78268 7.97297 8.68924 7.90595 8.59055 7.8708C8.49186 7.83344 8.33543 7.81477 8.12126 7.81477H7.93228V9.8319H7ZM7.93228 7.04351H8.62205C9.06929 7.04351 9.34856 7.02373 9.45984 6.98418C9.57113 6.94463 9.65827 6.87651 9.72126 6.77983C9.78425 6.68315 9.81575 6.56229 9.81575 6.41727C9.81575 6.25467 9.77375 6.12393 9.68976 6.02505C9.60788 5.92397 9.49134 5.86025 9.34016 5.83388C9.26457 5.8229 9.0378 5.8174 8.65984 5.8174H7.93228V7.04351Z" fill="white"/>
</g>
<defs>
<clipPath id="clip0_1350_124">
<rect width="17.553" height="14.978" fill="white"/>
</clipPath>
</defs>
</svg>
