<svg width="29" height="15" viewBox="0 0 29 15" fill="none" xmlns="http://www.w3.org/2000/svg">
<path d="M27 3H2V12H27V3Z" fill="#656668" stroke="#656668" stroke-width="2"/>
<path d="M12 9.91442V5.08252H13.9622C14.4556 5.08252 14.8136 5.12647 15.0362 5.21436C15.2609 5.30005 15.4404 5.45387 15.5748 5.6758C15.7092 5.89772 15.7764 6.15152 15.7764 6.43717C15.7764 6.79972 15.6745 7.09966 15.4709 7.33697C15.2672 7.57208 14.9627 7.7204 14.5575 7.78193C14.7591 7.90498 14.9249 8.04011 15.0551 8.18733C15.1874 8.33455 15.3648 8.59603 15.5874 8.97177L16.1512 9.91442H15.0362L14.3622 8.86301C14.1228 8.48727 13.9591 8.25105 13.8709 8.15437C13.7827 8.05549 13.6892 7.98847 13.5906 7.95332C13.4919 7.91596 13.3354 7.89729 13.1213 7.89729H12.9323V9.91442H12ZM12.9323 7.12603H13.622C14.0693 7.12603 14.3486 7.10625 14.4598 7.0667C14.5711 7.02715 14.6583 6.95903 14.7213 6.86235C14.7843 6.76567 14.8157 6.64481 14.8157 6.49979C14.8157 6.33719 14.7738 6.20645 14.6898 6.10757C14.6079 6.00649 14.4913 5.94277 14.3402 5.9164C14.2646 5.90542 14.0378 5.89992 13.6598 5.89992H12.9323V7.12603Z" fill="white"/>
</svg>
